# xmcd
#
# Track frame offsets:
#	150
#	13925
#	24819
#	41740
#	54364
#	66520
#	81356
#	102265
#	127125
#	140505
#	154290
#	165888
#	179307
#
# Disc length: 2702 seconds
#
# Revision: 0
# Processed by: cddbd v1.5.2PL0 Copyright (c) Steve Scherf et al.
# Submitted via: dBpowerAMP V4.0
#
DISCID=ad0a8c0d
DTITLE=Gospel Covertajat - Tiellä Jerusalemiin
DYEAR=2009
DGENRE=Gospel
TTITLE0=Matkaan Mooses -prologi
TTITLE1=Tiellä Jerusalemiin I - Hoosianna
TTITLE2=Meistäpä kai
TTITLE3=30 hopearahaa
TTITLE4=TIellä Jerusalemiin II - Ehtoollinen
TTITLE5=Ristille
TTITLE6=Barabbaan laulu
TTITLE7=Perjantai
TTITLE8=Toisen päivän iltana
TTITLE9=Kolmas aamu
TTITLE10=Totta se on
TTITLE11=Tiellä Jerusalemiin III - Lähettäminen
TTITLE12=Jeesus jos huomaat - epilogi
EXTD=
EXTT0=
EXTT1=
EXTT2=
EXTT3=
EXTT4=
EXTT5=
EXTT6=
EXTT7=
EXTT8=
EXTT9=
EXTT10=
EXTT11=
EXTT12=
PLAYORDER=
